<?xml version="1.0" encoding="utf-8"?>
<!-- Generator: Adobe Illustrator 24.0.0, SVG Export Plug-In . SVG Version: 6.00 Build 0)  -->
<svg version="1.1" id="Calque_1" xmlns="http://www.w3.org/2000/svg" xmlns:xlink="http://www.w3.org/1999/xlink" x="0px" y="0px"
	 viewBox="0 0 70.87 70.87" style="enable-background:new 0 0 70.87 70.87;" xml:space="preserve">
<path d="M10.6,37.56l12.85,8.87c0.81,0.56,1.01,1.66,0.46,2.47l-0.52,0.76c-0.56,0.81-1.67,1.02-2.48,0.46L4.54,38.81l-1.83-1.25
	c-1.03-0.71-1.03-2.22,0-2.93l1.83-1.26l16.37-11.3c0.81-0.56,1.92-0.35,2.48,0.46l0.52,0.76c0.55,0.81,0.35,1.91-0.46,2.47
	L10.6,34.63C9.57,35.34,9.57,36.85,10.6,37.56z"/>
<path d="M60.4,37.56l-12.85,8.87c-0.81,0.56-1.01,1.66-0.46,2.47l0.52,0.76c0.56,0.81,1.67,1.02,2.48,0.46l16.37-11.3l1.83-1.25
	c1.03-0.71,1.03-2.22,0-2.93l-1.83-1.26l-16.37-11.3c-0.81-0.56-1.92-0.35-2.48,0.46l-0.52,0.76c-0.55,0.81-0.35,1.91,0.46,2.47
	l12.86,8.88C61.43,35.34,61.43,36.85,60.4,37.56z"/>
<path d="M40.45,17.88L26.41,52.62c-0.21,0.53,0.04,1.12,0.57,1.34l2.24,0.91c0.53,0.21,1.12-0.04,1.34-0.57l14.03-34.74
	c0.21-0.53-0.04-1.12-0.57-1.34l-2.24-0.91C41.26,17.1,40.66,17.36,40.45,17.88z"/>
</svg>
