<?xml version="1.0" encoding="utf-8"?>
<!-- Generator: Adobe Illustrator 24.0.0, SVG Export Plug-In . SVG Version: 6.00 Build 0)  -->
<svg version="1.1" id="Calque_1" xmlns="http://www.w3.org/2000/svg" xmlns:xlink="http://www.w3.org/1999/xlink" x="0px" y="0px"
	 viewBox="0 0 70.87 70.87" style="enable-background:new 0 0 70.87 70.87;" xml:space="preserve">
<path d="M65.49,57.29l-12.9-13.45c2.25-3.97,3.57-8.58,3.57-13.52c0-14.7-11.43-26.61-25.53-26.61S5.1,15.62,5.1,30.32
	c0,14.7,11.43,26.61,25.53,26.61c5.47,0,10.52-1.81,14.67-4.86l12.6,13.13c1.38,1.44,3.62,1.44,5,0l2.6-2.71
	C66.87,61.06,66.87,58.73,65.49,57.29z M30.21,48.13c-9.43,0-17.08-7.97-17.08-17.81s7.65-17.81,17.08-17.81S47.3,20.49,47.3,30.32
	S39.65,48.13,30.21,48.13z"/>
</svg>
